<svg width="154" height="45" viewBox="0 0 154 45" fill="none" xmlns="http://www.w3.org/2000/svg">
<circle cx="22.5" cy="22.5" r="22.5" fill="#563AD6"/>
<g clip-path="url(#clip0)">
<path d="M22.5637 32.6598C24.3057 32.6598 25.7179 31.2476 25.7179 29.5055C25.7179 27.7634 24.3057 26.3512 22.5637 26.3512C20.8216 26.3512 19.4094 27.7634 19.4094 29.5055C19.4094 31.2476 20.8216 32.6598 22.5637 32.6598Z" fill="#3ABAD6"/>
<path d="M30.1022 21.9058C30.0554 21.8577 30.006 21.8148 29.9579 21.7706L29.8162 21.6367C29.7928 21.612 29.7668 21.5938 29.7369 21.5704C25.6581 17.8648 19.4159 18.0117 15.5231 21.9045L15.0667 22.3622L14.4348 22.9941C13.6651 23.7638 13.669 25.0185 14.44 25.7895C15.2123 26.5631 16.467 26.5644 17.2354 25.7947L18.325 24.7052C20.8006 22.2309 24.8273 22.2309 27.3016 24.7039L28.0882 25.4658C28.8501 26.2277 30.0931 26.2264 30.859 25.4593C31.2295 25.09 31.4336 24.5972 31.4349 24.0733C31.4362 23.5519 31.2347 23.0591 30.8642 22.6911L30.1022 21.9058Z" fill="#3ABAD6"/>
<path d="M35.476 18.0065L34.8207 17.3512C34.8181 17.3486 34.8168 17.3447 34.8116 17.3434L34.2941 16.8233C34.2031 16.7336 34.1043 16.6556 34.0003 16.588C27.3523 10.7514 17.2407 10.9308 10.8047 17.1224C10.7735 17.151 10.7384 17.1705 10.7072 17.2017L9.52397 18.3862C8.82186 19.087 8.82576 20.2272 9.53177 20.9333C10.2365 21.638 11.3768 21.6432 12.0789 20.9398L13.2621 19.7579C13.2699 19.7475 13.2764 19.7384 13.2842 19.7319C18.4889 14.704 26.7451 14.6728 31.9915 19.6292L32.9224 20.5614C33.6232 21.2622 34.7661 21.2596 35.4708 20.5549C36.1742 19.8489 36.1768 18.7073 35.476 18.0065Z" fill="#3ABAD6"/>
</g>
<path d="M63.886 30C62.9767 30 62.1993 29.8533 61.554 29.56C60.9233 29.252 60.4393 28.7827 60.102 28.152C59.7647 27.5213 59.596 26.7293 59.596 25.776V21.156H57.88C57.7187 21.156 57.5867 21.1047 57.484 21.002C57.3813 20.8993 57.33 20.7747 57.33 20.628V19.11C57.33 18.9487 57.3813 18.8167 57.484 18.714C57.5867 18.6113 57.7187 18.56 57.88 18.56H59.596V14.93C59.596 14.7687 59.6473 14.6367 59.75 14.534C59.8673 14.4313 59.9993 14.38 60.146 14.38H62.324C62.4707 14.38 62.5953 14.4313 62.698 14.534C62.8007 14.6367 62.852 14.7687 62.852 14.93V18.56H65.602C65.7633 18.56 65.8953 18.6113 65.998 18.714C66.1007 18.8167 66.152 18.9487 66.152 19.11V20.628C66.152 20.7747 66.1007 20.8993 65.998 21.002C65.8953 21.1047 65.7633 21.156 65.602 21.156H62.852V25.512C62.852 26.0693 62.9547 26.5093 63.16 26.832C63.3653 27.14 63.71 27.294 64.194 27.294H65.8C65.9613 27.294 66.0933 27.3453 66.196 27.448C66.2987 27.5507 66.35 27.6753 66.35 27.822V29.45C66.35 29.6113 66.2987 29.7433 66.196 29.846C66.0933 29.9487 65.9613 30 65.8 30H63.886ZM73.3513 30.22C71.6647 30.22 70.3227 29.7507 69.3253 28.812C68.3427 27.8733 67.822 26.5093 67.7633 24.72C67.7633 24.6027 67.7633 24.4487 67.7633 24.258C67.7633 24.0527 67.7633 23.8987 67.7633 23.796C67.822 22.652 68.0787 21.6767 68.5333 20.87C68.988 20.0487 69.626 19.4253 70.4473 19C71.2687 18.56 72.2293 18.34 73.3293 18.34C74.576 18.34 75.61 18.5967 76.4313 19.11C77.2527 19.6087 77.8687 20.298 78.2793 21.178C78.7047 22.0433 78.9173 23.0407 78.9173 24.17V24.676C78.9173 24.8227 78.866 24.9547 78.7633 25.072C78.6607 25.1747 78.5287 25.226 78.3673 25.226H71.1953C71.1953 25.226 71.1953 25.248 71.1953 25.292C71.1953 25.3213 71.1953 25.3507 71.1953 25.38C71.21 25.8493 71.298 26.282 71.4593 26.678C71.6207 27.0593 71.8553 27.3673 72.1633 27.602C72.486 27.8367 72.8747 27.954 73.3293 27.954C73.6813 27.954 73.9747 27.9027 74.2093 27.8C74.444 27.6827 74.6347 27.558 74.7813 27.426C74.9427 27.2793 75.06 27.1547 75.1333 27.052C75.2653 26.8907 75.368 26.7953 75.4413 26.766C75.5293 26.722 75.654 26.7 75.8153 26.7H78.1473C78.2793 26.7 78.3893 26.744 78.4773 26.832C78.58 26.92 78.624 27.03 78.6093 27.162C78.5947 27.4113 78.47 27.712 78.2353 28.064C78.0153 28.4013 77.6853 28.7387 77.2453 29.076C76.8053 29.3987 76.2553 29.67 75.5953 29.89C74.95 30.11 74.202 30.22 73.3513 30.22ZM71.1953 23.202H75.4853V23.136C75.4853 22.6227 75.3973 22.1753 75.2213 21.794C75.06 21.398 74.818 21.09 74.4953 20.87C74.1727 20.65 73.784 20.54 73.3293 20.54C72.8747 20.54 72.486 20.65 72.1633 20.87C71.8553 21.09 71.6133 21.398 71.4373 21.794C71.276 22.1753 71.1953 22.6227 71.1953 23.136V23.202ZM81.688 30C81.5266 30 81.3946 29.9487 81.292 29.846C81.1893 29.7433 81.138 29.6113 81.138 29.45V14.93C81.138 14.7687 81.1893 14.6367 81.292 14.534C81.3946 14.4313 81.5266 14.38 81.688 14.38H83.888C84.0493 14.38 84.1813 14.4313 84.284 14.534C84.3866 14.6367 84.438 14.7687 84.438 14.93V29.45C84.438 29.6113 84.3866 29.7433 84.284 29.846C84.1813 29.9487 84.0493 30 83.888 30H81.688ZM92.322 30.22C90.6354 30.22 89.2934 29.7507 88.296 28.812C87.3134 27.8733 86.7927 26.5093 86.734 24.72C86.734 24.6027 86.734 24.4487 86.734 24.258C86.734 24.0527 86.734 23.8987 86.734 23.796C86.7927 22.652 87.0494 21.6767 87.504 20.87C87.9587 20.0487 88.5967 19.4253 89.418 19C90.2394 18.56 91.2 18.34 92.3 18.34C93.5467 18.34 94.5807 18.5967 95.402 19.11C96.2234 19.6087 96.8394 20.298 97.25 21.178C97.6754 22.0433 97.888 23.0407 97.888 24.17V24.676C97.888 24.8227 97.8367 24.9547 97.734 25.072C97.6314 25.1747 97.4994 25.226 97.338 25.226H90.166C90.166 25.226 90.166 25.248 90.166 25.292C90.166 25.3213 90.166 25.3507 90.166 25.38C90.1807 25.8493 90.2687 26.282 90.43 26.678C90.5914 27.0593 90.826 27.3673 91.134 27.602C91.4567 27.8367 91.8454 27.954 92.3 27.954C92.652 27.954 92.9454 27.9027 93.18 27.8C93.4147 27.6827 93.6054 27.558 93.752 27.426C93.9134 27.2793 94.0307 27.1547 94.104 27.052C94.236 26.8907 94.3387 26.7953 94.412 26.766C94.5 26.722 94.6247 26.7 94.786 26.7H97.118C97.25 26.7 97.36 26.744 97.448 26.832C97.5507 26.92 97.5947 27.03 97.58 27.162C97.5654 27.4113 97.4407 27.712 97.206 28.064C96.986 28.4013 96.656 28.7387 96.216 29.076C95.776 29.3987 95.226 29.67 94.566 29.89C93.9207 30.11 93.1727 30.22 92.322 30.22ZM90.166 23.202H94.456V23.136C94.456 22.6227 94.368 22.1753 94.192 21.794C94.0307 21.398 93.7887 21.09 93.466 20.87C93.1434 20.65 92.7547 20.54 92.3 20.54C91.8454 20.54 91.4567 20.65 91.134 20.87C90.826 21.09 90.584 21.398 90.408 21.794C90.2467 22.1753 90.166 22.6227 90.166 23.136V23.202ZM100.659 34.18C100.497 34.18 100.365 34.1287 100.263 34.026C100.16 33.9233 100.109 33.7913 100.109 33.63V19.11C100.109 18.9487 100.16 18.8167 100.263 18.714C100.365 18.6113 100.497 18.56 100.659 18.56H102.749C102.91 18.56 103.042 18.6113 103.145 18.714C103.247 18.8167 103.299 18.9487 103.299 19.11V19.946C103.651 19.4767 104.105 19.0953 104.663 18.802C105.235 18.494 105.939 18.34 106.775 18.34C107.523 18.34 108.175 18.4647 108.733 18.714C109.305 18.9487 109.781 19.2933 110.163 19.748C110.559 20.188 110.867 20.7233 111.087 21.354C111.307 21.9847 111.431 22.696 111.461 23.488C111.475 23.7667 111.483 24.0307 111.483 24.28C111.483 24.5293 111.475 24.8007 111.461 25.094C111.431 25.842 111.307 26.5313 111.087 27.162C110.881 27.7927 110.581 28.3353 110.185 28.79C109.789 29.2447 109.305 29.5967 108.733 29.846C108.175 30.0953 107.523 30.22 106.775 30.22C106.012 30.22 105.359 30.088 104.817 29.824C104.274 29.5453 103.827 29.1713 103.475 28.702V33.63C103.475 33.7913 103.423 33.9233 103.321 34.026C103.218 34.1287 103.086 34.18 102.925 34.18H100.659ZM105.763 27.58C106.32 27.58 106.76 27.4627 107.083 27.228C107.405 26.9787 107.633 26.656 107.765 26.26C107.911 25.864 107.999 25.4313 108.029 24.962C108.058 24.5073 108.058 24.0527 108.029 23.598C107.999 23.1287 107.911 22.696 107.765 22.3C107.633 21.904 107.405 21.5887 107.083 21.354C106.76 21.1047 106.32 20.98 105.763 20.98C105.22 20.98 104.78 21.1047 104.443 21.354C104.12 21.6033 103.878 21.9187 103.717 22.3C103.57 22.6813 103.489 23.092 103.475 23.532C103.46 23.796 103.453 24.0673 103.453 24.346C103.453 24.6247 103.46 24.9033 103.475 25.182C103.489 25.5927 103.577 25.9813 103.739 26.348C103.9 26.7 104.149 26.9933 104.487 27.228C104.824 27.4627 105.249 27.58 105.763 27.58ZM117.16 30.22C116.383 30.22 115.686 30.0733 115.07 29.78C114.454 29.472 113.963 29.0613 113.596 28.548C113.23 28.0347 113.046 27.4627 113.046 26.832C113.046 25.7907 113.464 24.9693 114.3 24.368C115.151 23.7667 116.266 23.356 117.644 23.136L120.526 22.718V22.322C120.526 21.75 120.394 21.31 120.13 21.002C119.866 20.694 119.404 20.54 118.744 20.54C118.348 20.54 118.026 20.606 117.776 20.738C117.527 20.87 117.314 21.024 117.138 21.2C116.962 21.3613 116.794 21.508 116.632 21.64C116.588 21.728 116.544 21.7867 116.5 21.816C116.456 21.8453 116.398 21.86 116.324 21.86H114.3C114.154 21.86 114.029 21.816 113.926 21.728C113.838 21.6253 113.802 21.508 113.816 21.376C113.816 21.1267 113.912 20.8333 114.102 20.496C114.293 20.1587 114.586 19.8287 114.982 19.506C115.378 19.1687 115.884 18.89 116.5 18.67C117.131 18.45 117.886 18.34 118.766 18.34C119.69 18.34 120.482 18.45 121.142 18.67C121.802 18.89 122.33 19.198 122.726 19.594C123.137 19.99 123.43 20.452 123.606 20.98C123.797 21.4933 123.892 22.0507 123.892 22.652V29.45C123.892 29.6113 123.841 29.7433 123.738 29.846C123.636 29.9487 123.511 30 123.364 30H121.186C121.04 30 120.915 29.9487 120.812 29.846C120.71 29.7433 120.658 29.6113 120.658 29.45V28.636C120.468 28.9147 120.211 29.1787 119.888 29.428C119.566 29.6627 119.177 29.8533 118.722 30C118.282 30.1467 117.762 30.22 117.16 30.22ZM118.04 27.932C118.524 27.932 118.957 27.8293 119.338 27.624C119.72 27.4187 120.02 27.1033 120.24 26.678C120.46 26.2527 120.57 25.7173 120.57 25.072V24.698L118.524 25.028C117.747 25.16 117.175 25.358 116.808 25.622C116.442 25.886 116.258 26.2087 116.258 26.59C116.258 26.8687 116.339 27.1107 116.5 27.316C116.676 27.5067 116.896 27.6607 117.16 27.778C117.439 27.8807 117.732 27.932 118.04 27.932ZM131.97 30C131.061 30 130.283 29.8533 129.638 29.56C129.007 29.252 128.523 28.7827 128.186 28.152C127.849 27.5213 127.68 26.7293 127.68 25.776V21.156H125.964C125.803 21.156 125.671 21.1047 125.568 21.002C125.465 20.8993 125.414 20.7747 125.414 20.628V19.11C125.414 18.9487 125.465 18.8167 125.568 18.714C125.671 18.6113 125.803 18.56 125.964 18.56H127.68V14.93C127.68 14.7687 127.731 14.6367 127.834 14.534C127.951 14.4313 128.083 14.38 128.23 14.38H130.408C130.555 14.38 130.679 14.4313 130.782 14.534C130.885 14.6367 130.936 14.7687 130.936 14.93V18.56H133.686C133.847 18.56 133.979 18.6113 134.082 18.714C134.185 18.8167 134.236 18.9487 134.236 19.11V20.628C134.236 20.7747 134.185 20.8993 134.082 21.002C133.979 21.1047 133.847 21.156 133.686 21.156H130.936V25.512C130.936 26.0693 131.039 26.5093 131.244 26.832C131.449 27.14 131.794 27.294 132.278 27.294H133.884C134.045 27.294 134.177 27.3453 134.28 27.448C134.383 27.5507 134.434 27.6753 134.434 27.822V29.45C134.434 29.6113 134.383 29.7433 134.28 29.846C134.177 29.9487 134.045 30 133.884 30H131.97ZM136.859 30C136.713 30 136.581 29.9487 136.463 29.846C136.361 29.7433 136.309 29.6113 136.309 29.45V19.11C136.309 18.9487 136.361 18.8167 136.463 18.714C136.581 18.6113 136.713 18.56 136.859 18.56H139.081C139.228 18.56 139.353 18.6113 139.455 18.714C139.558 18.8167 139.609 18.9487 139.609 19.11V29.45C139.609 29.6113 139.558 29.7433 139.455 29.846C139.353 29.9487 139.228 30 139.081 30H136.859ZM136.793 16.8C136.647 16.8 136.522 16.7487 136.419 16.646C136.317 16.5433 136.265 16.4113 136.265 16.25V14.468C136.265 14.3213 136.317 14.1967 136.419 14.094C136.522 13.9767 136.647 13.918 136.793 13.918H139.125C139.272 13.918 139.397 13.9767 139.499 14.094C139.617 14.1967 139.675 14.3213 139.675 14.468V16.25C139.675 16.4113 139.617 16.5433 139.499 16.646C139.397 16.7487 139.272 16.8 139.125 16.8H136.793ZM145.756 30.22C144.979 30.22 144.282 30.0733 143.666 29.78C143.05 29.472 142.559 29.0613 142.192 28.548C141.825 28.0347 141.642 27.4627 141.642 26.832C141.642 25.7907 142.06 24.9693 142.896 24.368C143.747 23.7667 144.861 23.356 146.24 23.136L149.122 22.718V22.322C149.122 21.75 148.99 21.31 148.726 21.002C148.462 20.694 148 20.54 147.34 20.54C146.944 20.54 146.621 20.606 146.372 20.738C146.123 20.87 145.91 21.024 145.734 21.2C145.558 21.3613 145.389 21.508 145.228 21.64C145.184 21.728 145.14 21.7867 145.096 21.816C145.052 21.8453 144.993 21.86 144.92 21.86H142.896C142.749 21.86 142.625 21.816 142.522 21.728C142.434 21.6253 142.397 21.508 142.412 21.376C142.412 21.1267 142.507 20.8333 142.698 20.496C142.889 20.1587 143.182 19.8287 143.578 19.506C143.974 19.1687 144.48 18.89 145.096 18.67C145.727 18.45 146.482 18.34 147.362 18.34C148.286 18.34 149.078 18.45 149.738 18.67C150.398 18.89 150.926 19.198 151.322 19.594C151.733 19.99 152.026 20.452 152.202 20.98C152.393 21.4933 152.488 22.0507 152.488 22.652V29.45C152.488 29.6113 152.437 29.7433 152.334 29.846C152.231 29.9487 152.107 30 151.96 30H149.782C149.635 30 149.511 29.9487 149.408 29.846C149.305 29.7433 149.254 29.6113 149.254 29.45V28.636C149.063 28.9147 148.807 29.1787 148.484 29.428C148.161 29.6627 147.773 29.8533 147.318 30C146.878 30.1467 146.357 30.22 145.756 30.22ZM146.636 27.932C147.12 27.932 147.553 27.8293 147.934 27.624C148.315 27.4187 148.616 27.1033 148.836 26.678C149.056 26.2527 149.166 25.7173 149.166 25.072V24.698L147.12 25.028C146.343 25.16 145.771 25.358 145.404 25.622C145.037 25.886 144.854 26.2087 144.854 26.59C144.854 26.8687 144.935 27.1107 145.096 27.316C145.272 27.5067 145.492 27.6607 145.756 27.778C146.035 27.8807 146.328 27.932 146.636 27.932Z" fill="#02044A"/>
<defs>
<clipPath id="clip0">
<rect width="27" height="27" fill="white" transform="translate(9 9)"/>
</clipPath>
</defs>
</svg>
